<?xml version="1.0" encoding="UTF-8"?>
<svg width="30px" height="30px" viewBox="0 0 30 30" version="1.1" xmlns="http://www.w3.org/2000/svg" xmlns:xlink="http://www.w3.org/1999/xlink">
    <g id="首页" stroke="none" stroke-width="1" fill="none" fill-rule="evenodd">
        <g>
            <path d="M16.1816584,4.37895988 L24.6723729,10.4545263 C25.5055787,11.0507098 25.9997286,12.010542 26,13.0330395 L26,22.8304159 C26,24.5835587 24.5743027,26.0048759 22.8157573,26.0048759 L18.4736699,26.0048759 L18.4736699,21.3874549 C18.4736699,19.4750277 16.9182867,17.9245244 14.9999661,17.9245244 C13.0815776,17.9245244 11.5263301,19.4750277 11.5263301,21.3874549 L11.5263301,26.0048759 L7.18424266,26.0048759 C5.42566334,26.0048759 4,24.5835587 4,22.8304159 L4,13.0333101 C4,12.0106773 4.49425167,11.0508113 5.32749146,10.4545263 L13.8183755,4.37895988 C14.5244736,3.87368004 15.4753907,3.87368004 16.1816584,4.37895988" id="Fill-1" fill="currentColor"></path>
            <rect id="矩形" x="0" y="0" width="30" height="30"></rect>
        </g>
    </g>
</svg>
